<?xml version="1.0" encoding="UTF-8"?>
<svg id="Layer_2" data-name="Layer 2" xmlns="http://www.w3.org/2000/svg" viewBox="0 0 300 300">
  <defs>
    <style>
      .cls-1 {
        fill: #231f20;
      }

      .cls-1, .cls-2 {
        stroke-width: 0px;
      }

      .cls-2 {
        fill: #fff;
      }
    </style>
  </defs>
  <g id="Layer_1-2" data-name="Layer 1">
    <g>
      <circle class="cls-2" cx="150" cy="150" r="150"/>
      <path class="cls-1" d="M158.44,164.01c2.9-1.93,5.07-3.38,7.24-4.58,4.34-2.65,5.07-1.45,8.93-6.03,4.1-4.34,4.1-5.55,8.21-8.7,1.44-.96,3.86-3.14,7-6.03v-6.52c0-2.65,0-5.07.48-6.76.25-1.2.48-2.41.48-3.38,0-2.89-.96-5.79-.96-8.21,0-.72,0-1.2.25-1.93.72-3.86.48-2.65.72-11.59.49-8.93,1.21-9.9,3.38-18.58,2.42-8.7,12.56-18.11,21.25-22.69,8.45-4.59,14.97-7.72,21-7.72,5.55,0,6.03,3.14,9.41,7,1.44,1.93,1.93,4.34,1.93,7.24,0,3.38-.72,7.24-2.41,11.11-3.14,7.24-5.07,11.59-8.45,16.17-3.14,4.59-5.07,4.35-6.52,6.28-.97,1.44-1.21,5.8-5.32,10.62-6.75,7.72-10.86,11.82-14.97,15.45l-2.41,2.17v19.79c0,13.51-1.69,26.79-4.11,35.24h1.69c1.45,0,3.86-.73,7.72-.73,1.21,0,2.42,0,3.63.25,7.72,0,13.99-.96,22.2-3.14,2.66-.73,9.41-2.42,11.11-3.14,2.42-.96,4.34-.96,6.76-2.65.48-.24,3.14-.96,4.34-1.69.73-.48,1.69-.96,3.63-1.21.72,0,1.2.25,1.68.73.73.48.73,1.21.73,1.69-.24.73-1.21,1.21-2.41,2.17-2.66,1.44-4.84,1.94-8.45,3.14-3.86,1.69-8.69,2.66-12.55,3.86-1.94.49-7.72,2.17-9.66,2.42-3.62.73-6.28,1.94-11.82,1.94s-10.39.48-14,.48c-1.94,0-3.63,0-4.83-.25-.48,0-.73,0-1.21-.24-3.14,7.96-8.93,14.24-14.24,20.99-6.03,7.49-10.87,8.93-14.25,11.35-3.14,2.65-7.23,4.83-11.82,6.52-4.34,1.45-14,3.14-23.66,3.14-8.45,0-11.59-1.44-17.62-4.1-4.83-2.17-11.35-9.66-15.45-13.52-3.63,2.9-10.62,6.76-17.62,10.14-7.49,2.9-14.49,6.76-28.49,7.72-1.44,0-2.65.25-3.86.25-11.34,0-15.93-3.86-17.14-7.24-.24-.25-.24-.73-.24-.97,0-3.14,7.24-7,10.13-7s5.8,6.52,13.28,6.52c8.93,0,14.97-1.69,22.69-5.55,5.32-2.65,10.87-5.79,16.18-8.92-1.69-1.69-2.9-4.11-3.86-6.53-1.44-4.1-6.52-12.79-8.45-22.2-2.17-9.66-3.86-14.25-3.86-19.79s0-10.62,2.17-17.14c2.17-6.53,6.28-13.52,10.87-16.66,3.14-2.42,11.34-6.76,20.51-6.76,3.38,0,6.53.48,9.9,1.94,11.35,4.83,12.56,6.52,19.56,16.65,7.24,10.14,7.72,15.45,9.66,18.59.72,1.44,1.2,6.03,1.93,10.61ZM147.82,172.23c-1.93-7.01-4.34-14.49-6.27-17.39-2.65-4.34-8.21-13.03-13.76-17.39-5.07-4.83-7.24-8.92-13.04-11.58-2.65-1.21-4.83-1.45-7-1.45-2.9,0-5.55.73-7.48,1.69-3.38,2.17-5.55,6.52-6.53,10.62-.72,4.34-2.17,9.17-2.17,13.51,0,3.86.73,12.07,3.14,19.08,1.93,6.52,3.14,17.14,12.55,31.38,9.41-5.8,16.89-10.86,18.83-11.59,3.38-.96,7.48-5.32,18.1-14l3.62-2.89ZM110.17,204.81c10.38,13.52,23.41,17.62,26.31,17.62,1.93,0,4.34.73,7,.73,1.21,0,2.65-.24,3.86-.73,3.86-1.2,11.11-2.41,14.24-3.62,2.9-1.21,9.18-6.28,17.39-18.83,3.14-5.07,5.31-9.65,6.76-13.76-7.01,0-24.38-.73-24.38,0,0,2.65-.48,13.76-9.66,19.08-1.69.96-3.14,1.2-4.58,1.2-2.66,0-4.59-1.44-4.59-5.31.24-5.31,2.65-9.9,8.21-14,0-1.69-.48-5.06-1.44-8.92-6.76,5.31-13.76,11.1-18.83,14.72-7.49,5.55-11.59,7.96-16.41,9.65-2.18.49-3.14,1.21-3.86,2.17ZM185.96,181.88h1.21l2.17-9.17c.73-1.45.73-3.38.73-5.55,0-2.9-.25-6.03-.25-9.41,0-1.45.25-2.9.25-8.93v-2.65c-1.94,1.69-3.86,3.38-6.52,6.03-5.32,5.31-14.49,13.51-23.67,18.83-.24,0-.24.24-.24.24,0,.25,0,.73.24.97.25,2.41.97,9.41.97,9.41,0,0,19.79.25,25.1.25ZM207.44,120.08c1.45-1.44,2.65-3.14,3.86-4.59,7.97-10.61,11.35-15.45,14.97-21.24,4.34-6.03,6.03-11.59,8.45-16.9,2.65-5.79,4.59-7.23,4.59-12.07s0-8.92-6.04-8.92-11.82,2.17-16.41,12.3c-4.34,9.66-6.52,11.83-7.24,20.52-.72,8.45-1.93,10.38-2.65,13.52-.48.96-.73,1.93-.73,2.65,0,1.69.73,3.38.97,6.03.24,1.69.24,4.83.24,8.69Z"/>
    </g>
  </g>
</svg>