<?xml version="1.0" encoding="UTF-8"?>
<svg id="Layer_2" data-name="Layer 2" xmlns="http://www.w3.org/2000/svg" viewBox="0 0 300 300">
  <defs>
    <style>
      .cls-1 {
        fill: none;
      }

      .cls-1, .cls-2 {
        stroke-width: 0px;
      }

      .cls-2 {
        fill: #231f20;
      }
    </style>
  </defs>
  <g id="Layer_1-2" data-name="Layer 1">
    <g>
      <path class="cls-2" d="m156.68,176.72c3.21-2.13,5.61-3.74,8.02-5.07,4.81-2.94,5.61-1.61,9.89-6.68,4.54-4.81,4.54-6.15,9.09-9.63,1.6-1.07,4.28-3.47,7.75-6.68v-7.21c0-2.94,0-5.61.53-7.49.27-1.33.53-2.67.53-3.74,0-3.2-1.07-6.41-1.07-9.09,0-.79,0-1.33.27-2.13.79-4.28.53-2.94.79-12.83.54-9.89,1.34-10.96,3.74-20.58,2.68-9.63,13.91-20.05,23.53-25.12,9.36-5.08,16.57-8.55,23.25-8.55,6.15,0,6.68,3.47,10.42,7.75,1.6,2.13,2.13,4.81,2.13,8.02,0,3.74-.79,8.02-2.67,12.3-3.48,8.02-5.61,12.83-9.36,17.9-3.47,5.08-5.61,4.82-7.21,6.95-1.08,1.6-1.34,6.42-5.89,11.76-7.48,8.55-12.02,13.09-16.57,17.11l-2.67,2.4v21.91c0,14.96-1.87,29.66-4.55,39.02h1.87c1.61,0,4.28-.81,8.55-.81,1.34,0,2.68,0,4.02.27,8.55,0,15.5-1.07,24.58-3.47,2.95-.81,10.42-2.68,12.3-3.48,2.68-1.07,4.81-1.07,7.49-2.94.53-.26,3.47-1.07,4.81-1.87.81-.53,1.87-1.07,4.02-1.34.79,0,1.33.27,1.86.81.81.53.81,1.34.81,1.87-.26.81-1.34,1.34-2.67,2.4-2.95,1.6-5.35,2.14-9.36,3.47-4.28,1.87-9.62,2.95-13.9,4.28-2.14.54-8.55,2.4-10.7,2.68-4,.81-6.95,2.14-13.09,2.14s-11.5.53-15.51.53c-2.14,0-4.02,0-5.34-.27-.53,0-.81,0-1.34-.26-3.47,8.81-9.89,15.77-15.77,23.24-6.68,8.29-12.03,9.89-15.78,12.57-3.47,2.94-8.01,5.34-13.09,7.21-4.81,1.61-15.51,3.47-26.19,3.47-9.36,0-12.83-1.6-19.51-4.54-5.34-2.4-12.57-10.7-17.11-14.97-4.02,3.21-11.76,7.49-19.51,11.23-8.29,3.21-16.04,7.49-31.54,8.55-1.6,0-2.94.27-4.28.27-12.56,0-17.64-4.28-18.98-8.02-.26-.27-.26-.81-.26-1.08,0-3.47,8.02-7.75,11.22-7.75s6.42,7.21,14.7,7.21c9.89,0,16.57-1.87,25.12-6.15,5.89-2.94,12.03-6.41,17.91-9.88-1.87-1.87-3.21-4.55-4.28-7.23-1.6-4.54-7.21-14.16-9.36-24.58-2.4-10.7-4.28-15.78-4.28-21.91s0-11.76,2.4-18.98c2.4-7.23,6.95-14.97,12.03-18.44,3.47-2.68,12.56-7.49,22.71-7.49,3.74,0,7.23.53,10.96,2.14,12.57,5.34,13.91,7.21,21.65,18.43,8.02,11.23,8.55,17.11,10.7,20.59.79,1.6,1.33,6.68,2.13,11.75Zm-11.76,9.1c-2.13-7.76-4.81-16.04-6.94-19.25-2.94-4.81-9.09-14.43-15.23-19.25-5.61-5.34-8.02-9.88-14.44-12.82-2.94-1.34-5.34-1.61-7.75-1.61-3.21,0-6.15.81-8.28,1.87-3.74,2.4-6.15,7.21-7.23,11.76-.79,4.81-2.4,10.15-2.4,14.96,0,4.28.81,13.36,3.48,21.12,2.13,7.21,3.47,18.98,13.9,34.74,10.42-6.42,18.7-12.02,20.85-12.83,3.74-1.07,8.28-5.89,20.04-15.51l4-3.2Zm-41.69,36.07c11.49,14.97,25.92,19.51,29.13,19.51,2.13,0,4.81.81,7.75.81,1.34,0,2.94-.26,4.28-.81,4.28-1.33,12.3-2.67,15.77-4,3.21-1.34,10.16-6.95,19.25-20.85,3.47-5.61,5.88-10.69,7.49-15.23-7.76,0-27-.81-27,0,0,2.94-.53,15.23-10.7,21.12-1.87,1.07-3.47,1.33-5.07,1.33-2.95,0-5.08-1.6-5.08-5.88.26-5.88,2.94-10.96,9.09-15.51,0-1.87-.53-5.6-1.6-9.88-7.49,5.88-15.23,12.29-20.85,16.3-8.29,6.15-12.83,8.81-18.17,10.69-2.42.54-3.48,1.34-4.28,2.4Zm83.92-25.39h1.34l2.4-10.15c.81-1.61.81-3.74.81-6.15,0-3.21-.27-6.68-.27-10.42,0-1.61.27-3.21.27-9.89v-2.94c-2.14,1.87-4.28,3.74-7.21,6.68-5.89,5.88-16.04,14.96-26.2,20.85-.26,0-.26.26-.26.26,0,.27,0,.81.26,1.08.27,2.67,1.08,10.41,1.08,10.41,0,0,21.91.27,27.79.27Zm23.79-68.42c1.61-1.6,2.94-3.47,4.28-5.08,8.82-11.75,12.57-17.11,16.57-23.51,4.81-6.68,6.68-12.83,9.36-18.72,2.94-6.41,5.08-8.01,5.08-13.36s0-9.88-6.69-9.88-13.09,2.4-18.17,13.62c-4.81,10.7-7.21,13.1-8.02,22.72-.79,9.36-2.13,11.49-2.94,14.97-.53,1.07-.81,2.13-.81,2.94,0,1.87.81,3.74,1.08,6.68.26,1.87.26,5.34.26,9.62Z"/>
      <rect class="cls-1" width="300" height="300"/>
    </g>
  </g>
</svg>