<?xml version="1.0" encoding="UTF-8"?>
<svg id="Layer_2" xmlns="http://www.w3.org/2000/svg" viewBox="0 0 1020.13 107.23">
  <defs>
    <style>
      .cls-1 {
        fill: #000;
        stroke-width: 0px;
      }
    </style>
  </defs>
  <g id="Capa_1">
    <path class="cls-1" d="M477.77,55.24c-2.4-4.3-7.9-3.1-11.8-2.1-6.2,1.6-12.2,4.2-17.8,7.4-5.8,3.4-11,7.5-15.6,12.2.6-3.1.8-6.4.5-9.6-2-20.7-28.2-36.9-46.5-19-8.4,8.2-6.4,30.9,9.2,27.1,9.3-2.2,10.1-15.8.8-18.7-3.9-1.2-7.3-.1-9.5,2.1.9-.9,1.3-3.5,2-4.7,1-1.7,2.4-3.1,3.9-4.2,4.8-3.6,11.6-3.9,16.5-.5,9.1,6.2,9.8,20.1,6.3,29.5-3.7,10.2-12.1,18.7-22.1,22.9-10.1,4.2-20.7,4.7-31,2.9-10.8-2.8-21.4-7.3-30.9-12.3-2.4-1.5-4.8-3-7.2-4.6,7.9,2.9,16.3,3.3,24-1.7,11.3-7.3,14-24.4,4.6-34.2-7.3-7.6-20.5-9.7-28.9-3.8-3,1.8-5.4,4.5-6.4,8.3-2.1,7.7,3.8,16.1,12.3,14.9,8.1-1.1,10.7-11.9,5.1-17.4-3.6-3.4-8.6-3.5-6.9-4.3,7.7-2.3,18.2,4.4,20,12.5,3.3,14.3-11.2,22.4-23.5,19.8-10-2.1-17.7-9.2-25.4-15.6-32.5-27-78.7-34.9-118-19-32.9,13.2-73.7,51.6-110.5,28.3-3.6-2.3-6.4-6.3-10.5-7.6-6.3-2.1-9.9,5-5.9,9.5,3.9,4.3,11,6.6,16.3,8.4,7.3,2.5,16.5,3.8,24.2,2.3-23.8,4.8-49.1,2.7-65.9-15.9-3.9-4.3-6.4-9.8-11.1-13.4-3.4-2.6-8-3.9-12.1-2.4-6.1,2.1-7.5,9.3-4.3,14.4,9.2,14.3,30.9,18.5,46.4,21.6,34.2,6.8,66.6-3.4,96.4-19.8,10.3-5.7,20.4-13,31.7-17,8.5-3,23-5.2,30.2,2.3.6.6,1.2,1.4,1.4,2.3,1.2,5.7-12.9,6.1-15.7,8.7-4.3,3.9-3.3,11.5.4,15.5,6.2,6.8,14.6,3.9,19.5-2.1,9-7.6,10.4-22.3-.5-30.9-3-2.4-6.2-4-9.4-4.9,12-2.4,24.4-2.9,35.4,3.1,6.7,3.7,12.1,10,13.7,17.5,1,4.7-.1,9.2-1.4,13.7-.8,2.7-2.6,5.7-2.6,8.5,0,4,3.2,3.9,5.6,2,3.3-2.5,5.4-7.9,6.5-11.7,1.8-6.4,1-13.4-1.9-19.3-2.2-4.5-5.4-8.2-9.1-11.2,9.8,1,19.3,3.4,28.3,7.5,12.6,5.8,22.1,15.9,32.7,24.6,27.1,22.3,70.5,41.7,104,21.8,18.8-11.2,28-32.9,51.9-35.8,2.9-.4,6.4.2,9.2-.7,3.5-1,5.2-4,3.4-7.2Z"/>
    <path class="cls-1" d="M545.77,62.44c2.8.9,6.3.3,9.2.7,23.9,2.9,33.1,24.6,51.9,35.8,33.5,19.9,76.9.5,104-21.8,10.6-8.7,20.1-18.9,32.7-24.6,9-4.1,18.5-6.6,28.3-7.5-3.8,3-6.9,6.8-9.1,11.2-2.9,5.9-3.7,12.9-1.9,19.3,1,3.8,3.2,9.2,6.5,11.7,2.4,1.8,5.7,2,5.6-2,0-2.9-1.8-5.8-2.6-8.5-1.3-4.5-2.5-9-1.4-13.7,1.7-7.5,7.1-13.9,13.7-17.5,11-6,23.4-5.5,35.4-3.1-3.2,1-6.4,2.6-9.4,4.9-10.9,8.5-9.5,23.3-.5,30.9,4.9,6,13.3,8.9,19.5,2.1,3.6-4,4.7-11.6.4-15.5-2.9-2.6-16.9-3-15.7-8.7.2-.9.8-1.6,1.4-2.3,7.2-7.5,21.7-5.3,30.2-2.3,11.4,4,21.4,11.3,31.7,17,29.8,16.5,62.2,26.6,96.4,19.8,15.4-3.1,37.2-7.2,46.4-21.6,3.2-5.1,1.8-12.3-4.3-14.4-4-1.4-8.7-.2-12.1,2.4-4.7,3.6-7.2,9.1-11.1,13.4-16.8,18.5-42.1,20.7-65.9,15.9,7.7,1.6,16.9.2,24.2-2.3,5.4-1.8,12.4-4.1,16.3-8.4,4-4.4.4-11.5-5.9-9.5-4.1,1.3-6.9,5.4-10.5,7.6-36.8,23.2-77.6-15.1-110.5-28.3-39.4-15.8-85.6-8-118,19-7.6,6.4-15.3,13.5-25.4,15.6-12.3,2.6-26.8-5.4-23.5-19.8,1.9-8.1,12.4-14.9,20-12.5,1.7.8-3.3.9-6.9,4.3-5.7,5.5-3,16.2,5.1,17.4,8.4,1.2,14.3-7.2,12.3-14.9-1-3.7-3.4-6.5-6.4-8.3-8.4-5.8-21.6-3.8-28.9,3.8-9.4,9.9-6.7,26.9,4.6,34.2,7.7,5,16.1,4.6,24,1.7-2.4,1.6-4.7,3.1-7.2,4.6-9.5,5-20.1,9.5-30.9,12.3-10.3,1.9-20.9,1.3-31-2.9-10-4.2-18.3-12.7-22.1-22.9-3.5-9.4-2.8-23.3,6.3-29.5,5-3.4,11.8-3.1,16.5.5,1.6,1.2,2.9,2.6,3.9,4.2.7,1.2,1.1,3.8,2,4.7-2.3-2.2-5.6-3.3-9.5-2.1-9.2,2.9-8.4,16.5.8,18.7,15.6,3.7,17.6-19,9.2-27.1-18.3-17.8-44.5-1.6-46.5,19-.3,3.3-.1,6.5.5,9.6-4.6-4.7-9.8-8.9-15.6-12.2-5.5-3.2-11.5-5.8-17.8-7.4-3.9-1-9.4-2.2-11.8,2.1-1.5,3.2.2,6.2,3.4,7.2Z"/>
    <g>
      <path class="cls-1" d="M544.37,23.74c-5.9-4.3-23.6,12.2-24.6,13.9,2.8-14.9-8.8-38.8-8.8-37.6,0-1.2-11.5,22.7-8.8,37.6-1-1.6-18.7-18.2-24.6-13.9-6.5,4.8,4.1,10.2,7.2,12.4,1.7,1.3,3.7,2.6,5.7,4.1,7.8,5.6,13.5,13.7,16.2,22.9,2.3,7.6,4.3,15,4.3,15,0,0,2-7.4,4.3-15,2.8-9.2,8.5-17.2,16.2-22.9,2-1.4,3.9-2.8,5.7-4.1,3-2.2,13.7-7.6,7.2-12.4Z"/>
      <path class="cls-1" d="M506.47,70.34c-3-12.1-14.7-32.2-29.5-28.2-1,.3-1.5,1.9-.5,2.5,8.7,6.2,30,25.7,30,25.7Z"/>
      <path class="cls-1" d="M545.47,44.64c.9-.7.5-2.3-.5-2.5-14.8-4-26.4,16.1-29.5,28.2-.1,0,21.3-19.5,30-25.7Z"/>
    </g>
  </g>
</svg>